<svg width="134" height="132" viewBox="0 0 134 132" fill="none" xmlns="http://www.w3.org/2000/svg">
<path d="M2 73.3387L21.9194 113.177V81.7258L18.7742 74.3871L28.2097 59.7097H59.6613V81.7258L53.371 99.5484L68.0484 128.903L80.629 99.5484L75.3871 81.7258V59.7097H106.839L115.226 73.3387L112.081 81.7258V113.177L132 73.3387L115.226 42.9355H17.7258L2 73.3387Z" fill="#870000"/>
<path d="M116.274 29.3065H18.7742L2 1H18.7742L27.1613 13.5806H106.839L114.177 1H132L116.274 29.3065Z" fill="#870000"/>
<path d="M2 73.3387L21.9194 113.177V81.7258L18.7742 74.3871L28.2097 59.7097H59.6613V81.7258L53.371 99.5484L68.0484 128.903L80.629 99.5484L75.3871 81.7258V59.7097H106.839L115.226 73.3387L112.081 81.7258V113.177L132 73.3387L115.226 42.9355H17.7258L2 73.3387Z" stroke="#870000" stroke-width="1.90153"/>
<path d="M116.274 29.3065H18.7742L2 1H18.7742L27.1613 13.5806H106.839L114.177 1H132L116.274 29.3065Z" stroke="#870000" stroke-width="1.90153"/>
</svg>
