<svg width="598" height="313" viewBox="0 0 598 313" fill="none" xmlns="http://www.w3.org/2000/svg">
<path d="M75.3809 195.354H58.4766V187.209H101.572V195.354H84.668V233H75.3809V195.354ZM111.504 187.209H150.498V195.354H120.791V204.494H147.1V212.141H120.791V224.885H151.113V233H111.504V187.209ZM158.643 209.826C158.643 206.564 159.258 203.527 160.488 200.715C161.719 197.883 163.496 195.432 165.82 193.361C168.164 191.271 171.016 189.631 174.375 188.439C177.754 187.248 181.572 186.652 185.83 186.652C189.561 186.652 192.979 187.033 196.084 187.795C199.209 188.537 202.109 189.68 204.785 191.223L200.508 198.254C199.707 197.727 198.779 197.258 197.725 196.848C196.689 196.438 195.576 196.096 194.385 195.822C193.213 195.529 191.992 195.305 190.723 195.148C189.473 194.992 188.232 194.914 187.002 194.914C184.033 194.914 181.387 195.285 179.062 196.027C176.738 196.75 174.775 197.775 173.174 199.104C171.592 200.412 170.381 201.984 169.541 203.82C168.721 205.637 168.311 207.639 168.311 209.826C168.311 212.092 168.74 214.172 169.6 216.066C170.459 217.961 171.699 219.602 173.32 220.988C174.961 222.355 176.953 223.43 179.297 224.211C181.66 224.973 184.326 225.354 187.295 225.354C188.643 225.354 189.98 225.256 191.309 225.061C192.637 224.865 193.916 224.602 195.146 224.27C196.396 223.918 197.598 223.508 198.75 223.039C199.902 222.551 200.977 222.023 201.973 221.457L206.25 228.488C203.75 230.09 200.859 231.35 197.578 232.268C194.297 233.166 190.811 233.615 187.119 233.615C182.412 233.615 178.281 233.01 174.727 231.799C171.172 230.568 168.203 228.889 165.82 226.76C163.438 224.611 161.641 222.092 160.43 219.201C159.238 216.291 158.643 213.166 158.643 209.826ZM216.475 187.209H225.762V199.162H254.238V187.209H263.555V233H254.238V207.102H225.762V233H216.475V187.209ZM276.562 187.209H285.85V224.855H312.48V233H276.562V187.209ZM321.504 187.209H360.498V195.354H330.791V204.494H357.1V212.141H330.791V224.885H361.113V233H321.504V187.209ZM368.73 209.973C368.73 206.516 369.365 203.352 370.635 200.48C371.904 197.609 373.682 195.148 375.967 193.098C378.271 191.027 381.025 189.426 384.229 188.293C387.451 187.16 391.016 186.594 394.922 186.594C398.809 186.594 402.363 187.16 405.586 188.293C408.809 189.426 411.562 191.027 413.848 193.098C416.152 195.148 417.939 197.609 419.209 200.48C420.479 203.352 421.113 206.516 421.113 209.973C421.113 213.449 420.479 216.643 419.209 219.553C417.939 222.443 416.152 224.934 413.848 227.023C411.562 229.113 408.809 230.744 405.586 231.916C402.363 233.068 398.809 233.645 394.922 233.645C391.016 233.645 387.451 233.068 384.229 231.916C381.025 230.744 378.271 229.113 375.967 227.023C373.682 224.934 371.904 222.443 370.635 219.553C369.365 216.643 368.73 213.449 368.73 209.973ZM378.018 209.973C378.018 212.336 378.438 214.465 379.277 216.359C380.137 218.254 381.318 219.875 382.822 221.223C384.346 222.551 386.133 223.576 388.184 224.299C390.254 225.021 392.5 225.383 394.922 225.383C397.344 225.383 399.58 225.021 401.631 224.299C403.701 223.576 405.488 222.551 406.992 221.223C408.496 219.875 409.678 218.254 410.537 216.359C411.396 214.465 411.826 212.336 411.826 209.973C411.826 207.609 411.396 205.49 410.537 203.615C409.678 201.74 408.496 200.158 406.992 198.869C405.488 197.561 403.701 196.564 401.631 195.881C399.58 195.197 397.344 194.855 394.922 194.855C392.5 194.855 390.254 195.197 388.184 195.881C386.133 196.564 384.346 197.561 382.822 198.869C381.318 200.158 380.137 201.74 379.277 203.615C378.438 205.49 378.018 207.609 378.018 209.973ZM431.367 187.209H440.654L469.189 202.15V187.209H478.477V233H469.189V211.994L440.654 197.141V233H431.367V187.209ZM493.564 219.377C495.225 220.314 496.904 221.164 498.604 221.926C500.322 222.668 502.1 223.303 503.936 223.83C505.771 224.338 507.695 224.729 509.707 225.002C511.738 225.275 513.896 225.412 516.182 225.412C518.936 225.412 521.279 225.236 523.213 224.885C525.146 224.514 526.719 224.016 527.93 223.391C529.16 222.746 530.049 221.984 530.596 221.105C531.162 220.227 531.445 219.27 531.445 218.234C531.445 216.574 530.752 215.266 529.365 214.309C527.979 213.332 525.84 212.844 522.949 212.844C521.68 212.844 520.342 212.932 518.936 213.107C517.529 213.264 516.104 213.439 514.658 213.635C513.232 213.83 511.816 214.016 510.41 214.191C509.023 214.348 507.715 214.426 506.484 214.426C504.434 214.426 502.461 214.162 500.566 213.635C498.691 213.107 497.021 212.316 495.557 211.262C494.111 210.207 492.959 208.889 492.1 207.307C491.24 205.725 490.811 203.879 490.811 201.77C490.811 200.52 490.977 199.279 491.309 198.049C491.66 196.818 492.207 195.646 492.949 194.533C493.711 193.4 494.688 192.355 495.879 191.398C497.07 190.422 498.506 189.582 500.186 188.879C501.885 188.176 503.838 187.629 506.045 187.238C508.271 186.828 510.801 186.623 513.633 186.623C515.684 186.623 517.744 186.74 519.814 186.975C521.885 187.189 523.896 187.502 525.85 187.912C527.822 188.322 529.717 188.82 531.533 189.406C533.35 189.973 535.039 190.607 536.602 191.311L532.529 198.811C531.24 198.244 529.854 197.727 528.369 197.258C526.885 196.77 525.332 196.35 523.711 195.998C522.09 195.646 520.41 195.373 518.672 195.178C516.953 194.963 515.195 194.855 513.398 194.855C510.84 194.855 508.73 195.041 507.07 195.412C505.43 195.783 504.121 196.262 503.145 196.848C502.168 197.414 501.484 198.059 501.094 198.781C500.723 199.484 500.537 200.188 500.537 200.891C500.537 202.258 501.152 203.381 502.383 204.26C503.613 205.119 505.488 205.549 508.008 205.549C509.023 205.549 510.186 205.48 511.494 205.344C512.822 205.188 514.209 205.021 515.654 204.846C517.119 204.67 518.604 204.514 520.107 204.377C521.631 204.221 523.105 204.143 524.531 204.143C527.227 204.143 529.609 204.445 531.68 205.051C533.77 205.656 535.518 206.525 536.924 207.658C538.33 208.771 539.395 210.129 540.117 211.73C540.84 213.312 541.201 215.09 541.201 217.062C541.201 219.699 540.586 222.053 539.355 224.123C538.145 226.174 536.406 227.912 534.141 229.338C531.895 230.744 529.18 231.818 525.996 232.561C522.812 233.283 519.268 233.645 515.361 233.645C512.783 233.645 510.264 233.479 507.803 233.146C505.342 232.834 502.979 232.385 500.713 231.799C498.467 231.193 496.318 230.48 494.268 229.66C492.236 228.82 490.352 227.902 488.613 226.906L493.564 219.377Z" fill="url(#paint0_linear_22_1674)"/>
<path d="M222.832 273L225.032 260.5H228.832L226.632 273H222.832ZM224.252 261.4L215.792 260.5H224.412L224.252 261.4ZM223.932 263.32L215.452 262.42H224.072L223.932 263.32ZM223.592 265.24L215.112 264.34H223.752L223.592 265.24ZM223.252 267.16L214.772 266.26H223.412L223.252 267.16ZM222.912 269.08L214.432 268.18H223.072L222.912 269.08ZM222.572 271L214.092 270.1H222.732L222.572 271ZM222.232 272.94L213.752 272.04H222.392L222.232 272.94ZM235.37 273L236.99 263.7H234.25L234.83 260.5H244.13L243.55 263.7H240.79L239.17 273H235.37ZM234.03 261.4L225.57 260.5H234.19L234.03 261.4ZM233.71 263.32L225.23 262.42H233.85L233.71 263.32ZM236.11 265.24L227.63 264.34H236.27L236.11 265.24ZM235.77 267.16L227.29 266.26H235.93L235.77 267.16ZM235.43 269.08L226.95 268.18H235.59L235.43 269.08ZM235.09 271L226.61 270.1H235.25L235.09 271ZM234.75 272.94L226.27 272.04H234.91L234.75 272.94ZM256.125 273.3C255.339 273.3 254.565 273.253 253.805 273.16C253.059 273.08 252.332 272.953 251.625 272.78L252.745 269.48C253.252 269.613 253.799 269.727 254.385 269.82C254.972 269.9 255.525 269.94 256.045 269.94C256.472 269.94 256.845 269.933 257.165 269.92C257.485 269.893 257.792 269.86 258.085 269.82L258.245 268.82L256.585 268.66C255.279 268.527 254.372 268.233 253.865 267.78C253.359 267.313 253.105 266.68 253.105 265.88C253.105 265.52 253.145 265.12 253.225 264.68C253.439 263.547 253.745 262.653 254.145 262C254.559 261.347 255.145 260.887 255.905 260.62C256.665 260.34 257.672 260.2 258.925 260.2C259.659 260.2 260.379 260.24 261.085 260.32C261.792 260.4 262.472 260.527 263.125 260.7L262.085 263.9C261.565 263.807 261.072 263.733 260.605 263.68C260.139 263.627 259.619 263.6 259.045 263.6C258.739 263.6 258.479 263.607 258.265 263.62C258.052 263.633 257.792 263.66 257.485 263.7L257.325 264.68L258.665 264.82C259.625 264.913 260.379 265.1 260.925 265.38C261.472 265.647 261.859 265.987 262.085 266.4C262.312 266.8 262.425 267.267 262.425 267.8C262.425 267.96 262.412 268.127 262.385 268.3C262.372 268.46 262.352 268.633 262.325 268.82C262.139 269.9 261.839 270.747 261.425 271.36C261.012 271.973 260.525 272.42 259.965 272.7C259.405 272.967 258.792 273.133 258.125 273.2C257.472 273.267 256.805 273.3 256.125 273.3ZM253.825 261.32L246.105 260.5H254.705C254.532 260.607 254.372 260.733 254.225 260.88C254.092 261.013 253.959 261.16 253.825 261.32ZM252.905 263.3L244.605 262.42H253.205L252.905 263.3ZM252.525 265.24L244.045 264.34H252.665C252.652 264.38 252.639 264.42 252.625 264.46C252.625 264.5 252.625 264.54 252.625 264.58C252.612 264.673 252.592 264.773 252.565 264.88C252.552 264.987 252.539 265.107 252.525 265.24ZM252.685 267.16L244.225 266.26H252.525C252.539 266.433 252.552 266.593 252.565 266.74C252.592 266.873 252.632 267.013 252.685 267.16ZM255.325 269.08L244.745 268.18H253.365C253.805 268.607 254.459 268.907 255.325 269.08ZM251.585 270.98L244.405 270.1H251.885L251.585 270.98ZM250.945 272.92L244.065 272.04H251.245L250.945 272.92ZM272.162 273.3C270.429 273.3 269.209 272.96 268.502 272.28C267.809 271.6 267.462 270.593 267.462 269.26C267.462 268.887 267.482 268.493 267.522 268.08C267.576 267.667 267.642 267.227 267.722 266.76C267.976 265.307 268.349 264.1 268.842 263.14C269.336 262.167 270.029 261.433 270.922 260.94C271.816 260.447 272.996 260.2 274.462 260.2C276.196 260.2 277.409 260.54 278.102 261.22C278.809 261.887 279.162 262.893 279.162 264.24C279.162 264.787 279.116 265.413 279.022 266.12C278.942 266.827 278.796 267.547 278.582 268.28C278.382 269.013 278.109 269.707 277.762 270.36C277.416 271.013 276.982 271.573 276.462 272.04C275.929 272.507 275.309 272.833 274.602 273.02C273.896 273.207 273.082 273.3 272.162 273.3ZM269.522 261.16L263.402 260.5H270.422C270.262 260.593 270.109 260.693 269.962 260.8C269.816 260.907 269.669 261.027 269.522 261.16ZM268.122 263.22L260.642 262.42H268.522C268.456 262.553 268.389 262.687 268.322 262.82C268.256 262.94 268.189 263.073 268.122 263.22ZM271.242 269.88H272.822C273.262 269.88 273.622 269.827 273.902 269.72C274.196 269.613 274.389 269.313 274.482 268.82L275.402 263.62H273.802C273.362 263.62 273.002 263.673 272.722 263.78C272.442 263.887 272.256 264.187 272.162 264.68L271.242 269.88ZM267.462 265.16L259.702 264.34H267.702L267.462 265.16ZM267.082 267.1L259.222 266.26H267.222L267.162 266.66C267.149 266.74 267.136 266.82 267.122 266.9C267.109 266.967 267.096 267.033 267.082 267.1ZM266.882 269.02L259.002 268.18H266.942C266.902 268.473 266.882 268.753 266.882 269.02ZM267.042 270.94L259.262 270.1H266.902C266.929 270.247 266.949 270.393 266.962 270.54C266.989 270.673 267.016 270.807 267.042 270.94ZM268.102 272.78L261.182 272.04H267.502C267.676 272.347 267.876 272.593 268.102 272.78ZM283.711 273L285.911 260.5H289.711L288.071 269.8H291.871L291.311 273H283.711ZM285.131 261.4L276.671 260.5H285.291L285.131 261.4ZM284.811 263.32L276.331 262.42H284.951L284.811 263.32ZM284.471 265.24L275.991 264.34H284.631L284.471 265.24ZM284.131 267.16L275.651 266.26H284.291L284.131 267.16ZM283.791 269.08L275.311 268.18H283.951L283.791 269.08ZM283.451 271L274.971 270.1H283.611L283.451 271ZM283.111 272.94L274.631 272.04H283.271L283.111 272.94ZM301.132 273.3C300.066 273.3 299.212 273.2 298.572 273C297.932 272.787 297.472 272.44 297.192 271.96C296.912 271.48 296.772 270.847 296.772 270.06C296.772 269.713 296.792 269.327 296.832 268.9C296.886 268.473 296.959 268.013 297.052 267.52L298.292 260.5H302.092L300.432 269.88H301.792C302.219 269.88 302.539 269.827 302.752 269.72C302.966 269.613 303.119 269.313 303.212 268.82L304.692 260.5H308.492L307.252 267.52C307.066 268.6 306.832 269.513 306.552 270.26C306.286 270.993 305.926 271.587 305.472 272.04C305.032 272.48 304.459 272.8 303.752 273C303.046 273.2 302.172 273.3 301.132 273.3ZM297.512 261.4L289.052 260.5H297.672L297.512 261.4ZM297.172 263.32L288.712 262.42H297.332L297.172 263.32ZM296.832 265.24L288.352 264.34H296.992L296.832 265.24ZM296.492 267.16L288.032 266.26H296.652L296.492 267.16ZM296.212 269.08L287.752 268.18H296.312C296.299 268.34 296.279 268.493 296.252 268.64C296.239 268.787 296.226 268.933 296.212 269.08ZM296.232 271L287.772 270.1H296.172C296.172 270.42 296.192 270.72 296.232 271ZM297.152 272.94L288.692 272.04H296.512C296.686 272.413 296.899 272.713 297.152 272.94ZM314.901 273L316.521 263.7H313.781L314.361 260.5H323.661L323.081 263.7H320.321L318.701 273H314.901ZM313.561 261.4L305.101 260.5H313.721L313.561 261.4ZM313.241 263.32L304.761 262.42H313.381L313.241 263.32ZM315.641 265.24L307.161 264.34H315.801L315.641 265.24ZM315.301 267.16L306.821 266.26H315.461L315.301 267.16ZM314.961 269.08L306.481 268.18H315.121L314.961 269.08ZM314.621 271L306.141 270.1H314.781L314.621 271ZM314.281 272.94L305.801 272.04H314.441L314.281 272.94ZM326.973 273L329.173 260.5H332.973L330.773 273H326.973ZM328.393 261.4L319.933 260.5H328.553L328.393 261.4ZM328.073 263.32L319.593 262.42H328.213L328.073 263.32ZM327.733 265.24L319.253 264.34H327.893L327.733 265.24ZM327.393 267.16L318.913 266.26H327.553L327.393 267.16ZM327.053 269.08L318.573 268.18H327.213L327.053 269.08ZM326.713 271L318.233 270.1H326.873L326.713 271ZM326.373 272.94L317.893 272.04H326.533L326.373 272.94ZM341.811 273.3C340.077 273.3 338.857 272.96 338.151 272.28C337.457 271.6 337.111 270.593 337.111 269.26C337.111 268.887 337.131 268.493 337.171 268.08C337.224 267.667 337.291 267.227 337.371 266.76C337.624 265.307 337.997 264.1 338.491 263.14C338.984 262.167 339.677 261.433 340.571 260.94C341.464 260.447 342.644 260.2 344.111 260.2C345.844 260.2 347.057 260.54 347.751 261.22C348.457 261.887 348.811 262.893 348.811 264.24C348.811 264.787 348.764 265.413 348.671 266.12C348.591 266.827 348.444 267.547 348.231 268.28C348.031 269.013 347.757 269.707 347.411 270.36C347.064 271.013 346.631 271.573 346.111 272.04C345.577 272.507 344.957 272.833 344.251 273.02C343.544 273.207 342.731 273.3 341.811 273.3ZM339.171 261.16L333.051 260.5H340.071C339.911 260.593 339.757 260.693 339.611 260.8C339.464 260.907 339.317 261.027 339.171 261.16ZM337.771 263.22L330.291 262.42H338.171C338.104 262.553 338.037 262.687 337.971 262.82C337.904 262.94 337.837 263.073 337.771 263.22ZM340.891 269.88H342.471C342.911 269.88 343.271 269.827 343.551 269.72C343.844 269.613 344.037 269.313 344.131 268.82L345.051 263.62H343.451C343.011 263.62 342.651 263.673 342.371 263.78C342.091 263.887 341.904 264.187 341.811 264.68L340.891 269.88ZM337.111 265.16L329.351 264.34H337.351L337.111 265.16ZM336.731 267.1L328.871 266.26H336.871L336.811 266.66C336.797 266.74 336.784 266.82 336.771 266.9C336.757 266.967 336.744 267.033 336.731 267.1ZM336.531 269.02L328.651 268.18H336.591C336.551 268.473 336.531 268.753 336.531 269.02ZM336.691 270.94L328.911 270.1H336.551C336.577 270.247 336.597 270.393 336.611 270.54C336.637 270.673 336.664 270.807 336.691 270.94ZM337.751 272.78L330.831 272.04H337.151C337.324 272.347 337.524 272.593 337.751 272.78ZM353.359 273L355.559 260.5H359.139L361.179 264.94C361.219 265.033 361.239 265.167 361.239 265.34C361.239 265.433 361.233 265.533 361.219 265.64C361.219 265.733 361.213 265.82 361.199 265.9H361.359L362.319 260.5H366.119L363.919 273H360.339L358.299 268.56C358.286 268.507 358.266 268.447 358.239 268.38C358.226 268.3 358.219 268.213 358.219 268.12C358.219 268.04 358.219 267.953 358.219 267.86C358.233 267.767 358.246 267.68 358.259 267.6H358.099L357.159 273H353.359ZM354.779 261.4L346.319 260.5H354.939L354.779 261.4ZM354.459 263.32L345.979 262.42H354.599L354.459 263.32ZM354.119 265.24L345.639 264.34H354.279L354.119 265.24ZM353.779 267.16L345.299 266.26H353.939L353.779 267.16ZM353.439 269.08L344.959 268.18H353.599L353.439 269.08ZM353.099 271L344.619 270.1H353.259L353.099 271ZM352.759 272.94L344.279 272.04H352.919L352.759 272.94ZM375.051 273.3C374.264 273.3 373.491 273.253 372.731 273.16C371.984 273.08 371.258 272.953 370.551 272.78L371.671 269.48C372.178 269.613 372.724 269.727 373.311 269.82C373.898 269.9 374.451 269.94 374.971 269.94C375.398 269.94 375.771 269.933 376.091 269.92C376.411 269.893 376.718 269.86 377.011 269.82L377.171 268.82L375.511 268.66C374.204 268.527 373.298 268.233 372.791 267.78C372.284 267.313 372.031 266.68 372.031 265.88C372.031 265.52 372.071 265.12 372.151 264.68C372.364 263.547 372.671 262.653 373.071 262C373.484 261.347 374.071 260.887 374.831 260.62C375.591 260.34 376.598 260.2 377.851 260.2C378.584 260.2 379.304 260.24 380.011 260.32C380.718 260.4 381.398 260.527 382.051 260.7L381.011 263.9C380.491 263.807 379.998 263.733 379.531 263.68C379.064 263.627 378.544 263.6 377.971 263.6C377.664 263.6 377.404 263.607 377.191 263.62C376.978 263.633 376.718 263.66 376.411 263.7L376.251 264.68L377.591 264.82C378.551 264.913 379.304 265.1 379.851 265.38C380.398 265.647 380.784 265.987 381.011 266.4C381.238 266.8 381.351 267.267 381.351 267.8C381.351 267.96 381.338 268.127 381.311 268.3C381.298 268.46 381.278 268.633 381.251 268.82C381.064 269.9 380.764 270.747 380.351 271.36C379.938 271.973 379.451 272.42 378.891 272.7C378.331 272.967 377.718 273.133 377.051 273.2C376.398 273.267 375.731 273.3 375.051 273.3ZM372.751 261.32L365.031 260.5H373.631C373.458 260.607 373.298 260.733 373.151 260.88C373.018 261.013 372.884 261.16 372.751 261.32ZM371.831 263.3L363.531 262.42H372.131L371.831 263.3ZM371.451 265.24L362.971 264.34H371.591C371.578 264.38 371.564 264.42 371.551 264.46C371.551 264.5 371.551 264.54 371.551 264.58C371.538 264.673 371.518 264.773 371.491 264.88C371.478 264.987 371.464 265.107 371.451 265.24ZM371.611 267.16L363.151 266.26H371.451C371.464 266.433 371.478 266.593 371.491 266.74C371.518 266.873 371.558 267.013 371.611 267.16ZM374.251 269.08L363.671 268.18H372.291C372.731 268.607 373.384 268.907 374.251 269.08ZM370.511 270.98L363.331 270.1H370.811L370.511 270.98ZM369.871 272.92L362.991 272.04H370.171L369.871 272.92Z" fill="url(#paint1_linear_22_1674)"/>
<line x1="164" y1="246.5" x2="435.002" y2="246.5" stroke="url(#paint2_linear_22_1674)"/>
<path d="M235 105.339L254.919 145.177V113.726L251.774 106.387L261.21 91.7097H292.661V113.726L286.371 131.548L301.048 160.903L313.629 131.548L308.387 113.726V91.7097H339.839L348.226 105.339L345.081 113.726V145.177L365 105.339L348.226 74.9355H250.726L235 105.339Z" fill="#870000"/>
<path d="M349.274 61.3065H251.774L235 33H251.774L260.161 45.5806H339.839L347.177 33H365L349.274 61.3065Z" fill="#870000"/>
<path d="M235 105.339L254.919 145.177V113.726L251.774 106.387L261.21 91.7097H292.661V113.726L286.371 131.548L301.048 160.903L313.629 131.548L308.387 113.726V91.7097H339.839L348.226 105.339L345.081 113.726V145.177L365 105.339L348.226 74.9355H250.726L235 105.339Z" stroke="#870000" stroke-width="1.90153"/>
<path d="M349.274 61.3065H251.774L235 33H251.774L260.161 45.5806H339.839L347.177 33H365L349.274 61.3065Z" stroke="#870000" stroke-width="1.90153"/>
<defs>
<linearGradient id="paint0_linear_22_1674" x1="31" y1="211" x2="569" y2="211" gradientUnits="userSpaceOnUse">
<stop stop-color="#FF0000"/>
<stop offset="1"/>
</linearGradient>
<linearGradient id="paint1_linear_22_1674" x1="189" y1="265.5" x2="412" y2="265.5" gradientUnits="userSpaceOnUse">
<stop stop-color="#F80000"/>
<stop offset="1"/>
</linearGradient>
<linearGradient id="paint2_linear_22_1674" x1="164" y1="247.5" x2="435.002" y2="247.5" gradientUnits="userSpaceOnUse">
<stop stop-color="#FF0000"/>
<stop offset="1"/>
</linearGradient>
</defs>
</svg>
